<svg xmlns="http://www.w3.org/2000/svg" width="20" height="20" viewBox="0 0 20 20">
  <g id="user_2_" data-name="user (2)" transform="translate(0)">
    <path id="Path_142" data-name="Path 142" d="M19.414,7.852h-.89a8.679,8.679,0,0,0-.978-2.36l.629-.629a.586.586,0,0,0,0-.829l-2.21-2.21a.586.586,0,0,0-.829,0l-.629.629a8.679,8.679,0,0,0-2.36-.978V.586A.586.586,0,0,0,11.562,0H8.437a.586.586,0,0,0-.586.586v.89a8.678,8.678,0,0,0-2.36.978l-.629-.629a.586.586,0,0,0-.829,0l-2.21,2.21a.586.586,0,0,0,0,.829l.629.629a8.678,8.678,0,0,0-.978,2.36H.586A.586.586,0,0,0,0,8.438v3.125a.586.586,0,0,0,.586.586h.89a8.678,8.678,0,0,0,.978,2.36l-.629.629a.586.586,0,0,0,0,.829l2.21,2.21a.586.586,0,0,0,.829,0l.629-.629a8.68,8.68,0,0,0,2.36.978v.89A.586.586,0,0,0,8.437,20h3.125a.586.586,0,0,0,.586-.586v-.89a8.68,8.68,0,0,0,2.36-.978l.629.629a.586.586,0,0,0,.829,0l2.21-2.21a.586.586,0,0,0,0-.829l-.629-.629a8.678,8.678,0,0,0,.978-2.36h.89A.586.586,0,0,0,20,11.563V8.438A.586.586,0,0,0,19.414,7.852ZM10,16.055A6.055,6.055,0,1,1,16.055,10,6.062,6.062,0,0,1,10,16.055Z" fill="#f68714"/>
    <circle id="Ellipse_7" data-name="Ellipse 7" cx="1.435" cy="1.435" r="1.435" transform="translate(8.609 7.739)" fill="#f68714"/>
    <path id="Path_143" data-name="Path 143" d="M193.618,301a2.542,2.542,0,0,0-2.536,2.413,4.875,4.875,0,0,0,5.072,0A2.542,2.542,0,0,0,193.618,301Z" transform="translate(-183.618 -289.242)" fill="#f68714"/>
    <path id="Path_144" data-name="Path 144" d="M135.883,131a4.88,4.88,0,0,0-3.579,8.2,3.727,3.727,0,0,1,1.809-2.281,2.539,2.539,0,1,1,3.541,0,3.727,3.727,0,0,1,1.809,2.281,4.88,4.88,0,0,0-3.579-8.2Z" transform="translate(-125.883 -125.883)" fill="#f68714"/>
  </g>
</svg>
