<svg id="dashboard" xmlns="http://www.w3.org/2000/svg" width="15.667" height="15.667" viewBox="0 0 15.667 15.667">
  <path id="Path_138" data-name="Path 138" d="M6.038,0h-4.9A1.144,1.144,0,0,0,0,1.142V4.08A1.144,1.144,0,0,0,1.142,5.222h4.9A1.144,1.144,0,0,0,7.181,4.08V1.142A1.144,1.144,0,0,0,6.038,0Zm0,0" fill="#f68714"/>
  <path id="Path_139" data-name="Path 139" d="M6.038,213.332h-4.9A1.144,1.144,0,0,0,0,214.474v6.854a1.144,1.144,0,0,0,1.142,1.142h4.9a1.144,1.144,0,0,0,1.142-1.142v-6.854A1.144,1.144,0,0,0,6.038,213.332Zm0,0" transform="translate(0 -206.804)" fill="#f68714"/>
  <path id="Path_140" data-name="Path 140" d="M283.37,341.332h-4.9a1.144,1.144,0,0,0-1.142,1.142v2.938a1.144,1.144,0,0,0,1.142,1.142h4.9a1.143,1.143,0,0,0,1.142-1.142v-2.937A1.144,1.144,0,0,0,283.37,341.332Zm0,0" transform="translate(-268.846 -330.888)" fill="#f68714"/>
  <path id="Path_141" data-name="Path 141" d="M283.37,0h-4.9a1.144,1.144,0,0,0-1.142,1.142V8a1.144,1.144,0,0,0,1.142,1.142h4.9A1.144,1.144,0,0,0,284.513,8V1.142A1.144,1.144,0,0,0,283.37,0Zm0,0" transform="translate(-268.846)" fill="#f68714"/>
</svg>
