<svg xmlns="http://www.w3.org/2000/svg" width="18.667" height="22.504" viewBox="0 0 18.667 22.504">
  <g id="money" transform="translate(-36.238 0)">
    <g id="Group_40" data-name="Group 40" transform="translate(36.238 0)">
      <g id="Group_33" data-name="Group 33" transform="translate(9.803 14.462)">
        <path id="Path_146" data-name="Path 146" d="M222.421,273.595a1.071,1.071,0,0,0-.3-.218,3.622,3.622,0,0,0-.761-.269v2.013a1.43,1.43,0,0,0,1.127-.594h0a.92.92,0,0,0,.084-.628A.632.632,0,0,0,222.421,273.595Z" transform="translate(-221.36 -273.108)" fill="#f68714"/>
      </g>
      <g id="Group_34" data-name="Group 34" transform="translate(10.928 15.881)">
        <path id="Path_147" data-name="Path 147" d="M242.6,299.9l0,0h0Z" transform="translate(-242.604 -299.9)" fill="#f68714"/>
      </g>
      <g id="Group_35" data-name="Group 35" transform="translate(7.689 11.232)">
        <path id="Path_148" data-name="Path 148" d="M181.577,212.605a.755.755,0,0,0-.131.354.849.849,0,0,0,.043.391.628.628,0,0,0,.244.268,1.9,1.9,0,0,0,.362.187c.106.043.224.083.353.122v-1.822A1.39,1.39,0,0,0,181.577,212.605Z" transform="translate(-181.441 -212.106)" fill="#f68714"/>
      </g>
      <g id="Group_36" data-name="Group 36" transform="translate(10.93 15.866)">
        <path id="Path_149" data-name="Path 149" d="M242.655,299.619l-.008.015h0Z" transform="translate(-242.647 -299.619)" fill="#f68714"/>
      </g>
      <g id="Group_37" data-name="Group 37" transform="translate(10.949 15.846)">
        <path id="Path_150" data-name="Path 150" d="M243,299.245Z" transform="translate(-243.004 -299.244)" fill="#f68714"/>
      </g>
      <g id="Group_38" data-name="Group 38" transform="translate(0 0)">
        <path id="Path_151" data-name="Path 151" d="M46.75,4.9C48.462,3.459,49.606.219,48.9.077c-.935-.188-2.967.638-3.948.783-1.392.168-2.909-1.51-3.76-.575-.692.761.5,3.526,2.355,4.731C38,7.743,30.205,21.429,43.807,22.422,62.627,23.8,53.2,7.553,46.75,4.9ZM48.367,15.69a1.979,1.979,0,0,1-.763,1.344,2.917,2.917,0,0,1-1.562.552v.59a.554.554,0,1,1-1.107,0v-.644c-.1-.018-.19-.04-.284-.065a2.717,2.717,0,0,1-1.354-.833,2.441,2.441,0,0,1-.417-.69c-.026-.066-.049-.133-.069-.2a1.028,1.028,0,0,1-.044-.187.554.554,0,0,1,1.076-.23c.021.064.035.129.059.192a1.234,1.234,0,0,0,.085.182,1.411,1.411,0,0,0,.243.311,1.648,1.648,0,0,0,.7.384V14.2a3.94,3.94,0,0,1-1.452-.627,1.689,1.689,0,0,1-.49-.589,1.843,1.843,0,0,1-.171-.793,1.888,1.888,0,0,1,.166-.8,1.956,1.956,0,0,1,.454-.623,2.773,2.773,0,0,1,1.493-.662V9.5a.554.554,0,1,1,1.107,0v.609q.109.014.216.033a2.734,2.734,0,0,1,1.445.7,2.112,2.112,0,0,1,.442.636,2.028,2.028,0,0,1,.078.2,1.23,1.23,0,0,1,.052.2.554.554,0,0,1-1.064.28c-.023-.06-.035-.124-.058-.185a.976.976,0,0,0-.09-.174,1.056,1.056,0,0,0-.261-.274,1.794,1.794,0,0,0-.76-.3v2.1a7.028,7.028,0,0,1,.946.281,2.211,2.211,0,0,1,1.154.9c-.039-.069-.077-.136,0,0s.04.071,0,0A1.975,1.975,0,0,1,48.367,15.69Z" transform="translate(-36.238 0)" fill="#f68714"/>
      </g>
      <g id="Group_39" data-name="Group 39" transform="translate(10.914 15.895)">
        <path id="Path_152" data-name="Path 152" d="M242.345,300.169l-.008.015Z" transform="translate(-242.337 -300.169)" fill="#f68714"/>
      </g>
    </g>
  </g>
</svg>
