<svg xmlns="http://www.w3.org/2000/svg" width="21.324" height="19.547" viewBox="0 0 21.324 19.547">
  <g id="feedback" transform="translate(0 -21.33)">
    <g id="Group_42" data-name="Group 42" transform="translate(0 21.33)">
      <g id="Group_41" data-name="Group 41">
        <path id="Path_153" data-name="Path 153" d="M19.273,29.208a.444.444,0,0,0-.484.1l-2.743,2.742a1.327,1.327,0,0,1-.68.364l-2.221.444a1.332,1.332,0,0,1-1.568-1.568l.392-1.96H4.887a.444.444,0,1,1,0-.889h7.458c.015-.017.024-.039.041-.055l1.722-1.722H4.887a.444.444,0,1,1,0-.889H14.66a.433.433,0,0,1,.249.086l2.883-2.883a2.567,2.567,0,0,1,.875-.569.445.445,0,0,0,.08-.784,1.774,1.774,0,0,0-.977-.294H1.777A1.779,1.779,0,0,0,0,23.107V40.433a.444.444,0,0,0,.274.41.439.439,0,0,0,.17.034.444.444,0,0,0,.314-.13l4.312-4.312h12.7a1.779,1.779,0,0,0,1.777-1.777v-5.04A.445.445,0,0,0,19.273,29.208Zm-9.055,2.784H4.887a.444.444,0,0,1,0-.889h5.331a.444.444,0,0,1,0,.889Z" transform="translate(0 -21.33)" fill="#f68714"/>
        <path id="Path_154" data-name="Path 154" d="M305.848,64a1.711,1.711,0,0,0-1.2.5L299.238,69.9a.442.442,0,0,0-.121.227l-.444,2.222a.444.444,0,0,0,.436.531.454.454,0,0,0,.087-.009l2.22-.444a.442.442,0,0,0,.227-.121l5.408-5.407h0a1.7,1.7,0,0,0-1.2-2.9Zm-.7,3.554-1.149-1.149.628-.628,1.149,1.149Z" transform="translate(-286.224 -62.223)" fill="#f68714"/>
      </g>
    </g>
  </g>
</svg>
