<svg xmlns="http://www.w3.org/2000/svg" width="20" height="14.962" viewBox="0 0 20 14.962">
  <g id="Icon_ionic-ios-card" data-name="Icon ionic-ios-card" transform="translate(-2.25 -6.75)">
    <path id="Path_64" data-name="Path 64" d="M22.25,8.325A1.512,1.512,0,0,0,20.822,6.75H3.679A1.512,1.512,0,0,0,2.25,8.325v2.363h20Z" fill="#f68714"/>
    <path id="Path_65" data-name="Path 65" d="M2.25,23.625A1.512,1.512,0,0,0,3.679,25.2H20.822a1.512,1.512,0,0,0,1.429-1.575V15.75h-20Zm6.339-2.362h7.321a.661.661,0,0,1,.625.689h0a.661.661,0,0,1-.625.689H8.589a.661.661,0,0,1-.625-.689h0A.661.661,0,0,1,8.589,21.263Zm-3.214,0h.536a.661.661,0,0,1,.625.689h0a.661.661,0,0,1-.625.689H5.375a.661.661,0,0,1-.625-.689h0A.661.661,0,0,1,5.375,21.263Z" transform="translate(0 -3.488)" fill="#f68714"/>
  </g>
</svg>
